<svg width="23" height="21" viewBox="0 0 23 21" fill="none" xmlns="http://www.w3.org/2000/svg">
<path d="M17.5004 15.5V20.5H15.5004V15.5C15.5004 11.0487 18.1444 7.21498 21.9475 5.48352L22.7753 7.3047C19.6637 8.7213 17.5004 11.8581 17.5004 15.5ZM7.50045 15.5V20.5H5.50045V15.5C5.50045 11.8581 3.33723 8.7213 0.225586 7.3047L1.05339 5.48352C4.85651 7.21498 7.50045 11.0487 7.50045 15.5ZM11.5004 10.5C8.73902 10.5 6.50045 8.26142 6.50045 5.5C6.50045 2.73858 8.73902 0.5 11.5004 0.5C14.2619 0.5 16.5004 2.73858 16.5004 5.5C16.5004 8.26142 14.2619 10.5 11.5004 10.5ZM11.5004 8.5C13.1573 8.5 14.5004 7.15685 14.5004 5.5C14.5004 3.84315 13.1573 2.5 11.5004 2.5C9.8436 2.5 8.50045 3.84315 8.50045 5.5C8.50045 7.15685 9.8436 8.5 11.5004 8.5Z" fill="#19231A"/>
</svg>
