<svg width="12" height="13" viewBox="0 0 12 13" fill="none" xmlns="http://www.w3.org/2000/svg">
<path d="M5.99994 0.297363L6.28444 0.442788C7.388 1.00694 8.333 1.8361 9.03581 2.8465C9.61575 2.57106 10.2367 2.36774 10.8871 2.24828L11.625 2.11274V7.12467C11.625 10.2312 9.10662 12.7498 6 12.7498C2.8934 12.7498 0.375 10.2314 0.375 7.12479V2.11274L1.11291 2.24828C1.76322 2.36774 2.38419 2.57103 2.96408 2.84645C3.66691 1.83608 4.61189 1.00693 5.71544 0.442788L5.99994 0.297363ZM4.04848 3.47794C4.81706 4.01633 5.47994 4.69521 6 5.47754C6.52012 4.69524 7.18313 4.01631 7.95144 3.47801C7.4345 2.75976 6.76888 2.15556 5.99994 1.71068C5.23106 2.15554 4.56542 2.75971 4.04848 3.47794ZM5.31206 6.77092C4.76137 5.69992 3.90996 4.80804 2.86945 4.20745C2.47919 3.98219 2.06244 3.79796 1.625 3.66059V7.12479C1.625 9.18098 3.04351 10.9059 4.95531 11.3743C4.82106 10.8125 4.75 10.2266 4.75 9.62467C4.75 8.61417 4.94987 7.65048 5.31206 6.77092ZM6.28319 11.4907C8.56744 11.3448 10.375 9.44579 10.375 7.12467V3.66059C9.9375 3.79798 9.52075 3.98221 9.1305 4.2075C7.25794 5.28836 6 7.30998 6 9.62467C6 10.2754 6.09925 10.902 6.28319 11.4907Z" fill="#002AFB"/>
</svg>
